<?xml version="1.0" encoding="utf-8"?>
<!-- Generator: Adobe Illustrator 26.5.0, SVG Export Plug-In . SVG Version: 6.00 Build 0)  -->
<svg version="1.1" id="Layer_1" xmlns="http://www.w3.org/2000/svg" xmlns:xlink="http://www.w3.org/1999/xlink" x="0px" y="0px"
	 viewBox="0 0 31.5 31.5" style="enable-background:new 0 0 31.5 31.5;" xml:space="preserve">
<style type="text/css">
	.st0{fill:#231F20;stroke:#D1D3D4;stroke-width:0.5;stroke-miterlimit:10;}
	.st1{fill:#FFFFFF;stroke:#D1D3D4;stroke-width:0.5;stroke-miterlimit:10;}
</style>
<g>
	<polygon class="st0" points="11.36,18.28 11.36,13.21 6.97,10.68 2.58,13.21 2.58,18.28 6.97,20.81 	"/>
	<polygon class="st1" points="20.14,18.28 20.14,13.21 15.75,10.68 11.36,13.21 11.36,18.28 15.75,20.81 	"/>
	<polygon class="st0" points="15.75,25.88 15.75,20.81 11.36,18.28 6.97,20.81 6.97,25.88 11.36,28.41 	"/>
	<polygon class="st0" points="28.91,18.28 28.91,13.21 24.52,10.68 20.14,13.21 20.14,18.28 24.52,20.81 	"/>
	<polygon class="st0" points="15.75,10.69 15.75,5.62 11.36,3.09 6.97,5.62 6.97,10.69 11.36,13.22 	"/>
	<polygon class="st0" points="24.52,10.69 24.52,5.62 20.14,3.09 15.75,5.62 15.75,10.69 20.14,13.22 	"/>
	<polygon class="st0" points="24.52,25.88 24.52,20.81 20.14,18.28 15.75,20.81 15.75,25.88 20.14,28.41 	"/>
</g>
</svg>
